<svg width="575" height="71" viewBox="0 0 575 71" fill="none" xmlns="http://www.w3.org/2000/svg">
<g clip-path="url(#clip0_1_45)">
<path d="M105.998 60.6056L95.9192 31.24H102.875L108.987 50.9875L115.597 31.1643H121.154L127.803 50.9875L133.934 31.24H140.698L130.639 60.6056H124.986L118.318 41.5208L111.669 60.6056H106.017H105.998ZM153.172 60.8896C146.159 60.8896 140.985 55.7776 140.985 49.3592V49.2835C140.985 42.8461 146.216 37.6584 153.248 37.6584C160.242 37.6584 165.435 42.7704 165.435 49.2077V49.2835C165.435 55.6829 160.204 60.8896 153.172 60.8896ZM153.248 55.4368C156.908 55.4368 159.112 52.6536 159.112 49.3592V49.2835C159.112 45.9891 156.697 43.1112 153.172 43.1112C149.493 43.1112 147.309 45.8944 147.309 49.1888V49.2835C147.309 52.5589 149.704 55.4368 153.248 55.4368ZM170.072 60.3973V38.056H176.471V42.5621C177.774 39.4949 179.882 37.488 183.676 37.6395V44.2661H183.369C179.116 44.2661 176.49 46.8221 176.49 52.1424V60.3973H170.091H170.072ZM187.7 60.3973V29.9904H194.099V46.1973L201.591 38.056H209.256L200.671 46.86L209.562 60.3973H202.223L196.322 51.2715L194.099 53.6003V60.3973H187.68H187.7ZM222.304 60.8896C215.502 60.8896 210.501 56.1941 210.501 49.3592V49.2835C210.501 42.9029 215.1 37.6584 221.672 37.6584C229.202 37.6584 232.67 43.452 232.67 49.7757C232.67 50.268 232.632 50.8549 232.574 51.4419H216.862C217.495 54.3197 219.507 55.8155 222.381 55.8155C224.527 55.8155 226.098 55.1528 227.861 53.5245L231.52 56.7432C230.418 58.0983 229.011 59.1804 227.411 59.9036C225.811 60.6267 224.062 60.9708 222.304 60.9085V60.8896ZM216.767 47.4848H226.424C226.04 44.6448 224.354 42.7515 221.672 42.7515C219.008 42.7515 217.265 44.6069 216.767 47.4848ZM237.422 60.3973V38.056H243.841V42.5621C245.144 39.4949 247.251 37.488 251.045 37.6395V44.2661H250.7C246.447 44.2661 243.841 46.8221 243.841 52.1424V60.3973H237.403H237.422ZM262.983 60.8139C259.821 60.8139 256.276 59.7725 253.287 57.4437L256.027 53.2784C258.07 54.8536 260.549 55.778 263.136 55.9291C264.994 55.9291 265.837 55.2664 265.837 54.2819V54.1872C265.837 52.824 263.653 52.3507 261.162 51.6123C258.001 50.6845 254.418 49.2267 254.418 44.9099V44.8152C254.418 40.2712 258.135 37.7341 262.676 37.7341C265.55 37.7341 268.673 38.6808 271.107 40.328L268.673 44.6827C266.833 43.5027 264.727 42.7875 262.542 42.6C261.009 42.6 260.185 43.2816 260.185 44.1525V44.2283C260.185 45.4779 262.35 46.0648 264.784 46.8979C267.945 47.9392 271.624 49.4349 271.624 53.5245V53.6003C271.624 58.5608 267.869 60.8139 262.983 60.8139Z" fill="#232324"/>
<path d="M232.019 14.9384C231.711 14.9384 231.416 14.8177 231.199 14.6029C230.982 14.3881 230.859 14.0967 230.859 13.7929C230.859 13.4891 230.982 13.1978 231.199 12.983C231.416 12.7681 231.711 12.6475 232.019 12.6475C232.651 12.6475 233.187 13.1587 233.187 13.7835C233.187 14.4083 232.651 14.9195 232.019 14.9195V14.9384ZM232.019 12.8557C231.894 12.8557 231.77 12.8803 231.655 12.9281C231.54 12.9759 231.435 13.0459 231.348 13.1341C231.26 13.2223 231.192 13.3268 231.146 13.4415C231.1 13.5563 231.077 13.679 231.08 13.8024C231.08 14.2947 231.501 14.7112 232.019 14.7112C232.536 14.7112 232.958 14.2947 232.958 13.7835C232.958 13.2912 232.536 12.8747 232.019 12.8747V12.8557ZM232.613 14.3893H232.344L232.114 13.9539H231.808V14.3893H231.559V13.1397H232.172C232.44 13.1397 232.613 13.3101 232.613 13.5373C232.616 13.6209 232.592 13.7033 232.544 13.7718C232.495 13.8403 232.425 13.891 232.344 13.916L232.613 14.3893ZM232.153 13.7267C232.249 13.7267 232.344 13.6699 232.344 13.5373C232.344 13.4048 232.268 13.348 232.153 13.348H231.77V13.7267H232.153ZM110.194 12.5339H113.183V20.5048H118.414V23.0608H110.175V12.5339H110.194ZM121.48 17.8352V17.7973C121.48 14.768 123.971 12.3067 127.285 12.3067C128.028 12.2813 128.768 12.4034 129.462 12.6656C130.156 12.9278 130.789 13.3248 131.325 13.8332C131.861 14.3415 132.289 14.9509 132.582 15.6253C132.875 16.2997 133.029 17.0254 133.034 17.7595V17.7973C133.034 20.8267 130.543 23.2691 127.247 23.2691C126.503 23.297 125.761 23.1769 125.065 22.9158C124.369 22.6548 123.733 22.2582 123.195 21.7496C122.657 21.2409 122.228 20.6306 121.933 19.955C121.639 19.2793 121.484 18.552 121.48 17.8163V17.8352ZM130.025 17.8352V17.7973C130.025 16.2827 128.914 14.9573 127.266 14.9573C125.638 14.9573 124.545 16.2448 124.545 17.7784V17.7973C124.545 19.312 125.657 20.6373 127.285 20.6373C128.933 20.6373 130.025 19.3499 130.025 17.8163V17.8352ZM136.713 18.4411V12.5339H139.74V18.4032C139.74 19.9179 140.526 20.6184 141.714 20.6184C142.902 20.6184 143.687 19.9368 143.687 18.46V12.5339H146.715V18.3653C146.715 21.7733 144.741 23.2501 141.675 23.2501C138.61 23.2501 136.693 21.7355 136.693 18.4411H136.713ZM151.275 12.5339H155.414C159.246 12.5339 161.488 14.6923 161.488 17.7405V17.7784C161.488 20.8077 159.227 23.0797 155.356 23.0797H151.275V12.5149V12.5339ZM155.49 20.4859C157.253 20.4859 158.441 19.5203 158.441 17.7973C158.441 16.0933 157.253 15.1277 155.471 15.1277H154.264V20.448H155.471V20.4669L155.49 20.4859ZM165.837 12.5339H174.44V15.0899H168.807V16.8885H173.904V19.312H168.807V23.0608H165.837V12.5339ZM178.579 12.5339H181.549V20.5048H186.761V23.0608H178.579V12.5339ZM194.54 12.4581H197.414L202.013 23.0608H198.794L198.027 21.1864H193.869L193.103 23.0797H189.98L194.54 12.4581ZM197.165 18.9144L195.977 15.9229L194.77 18.9144H197.165ZM205.826 12.5339H210.923C212.57 12.5339 213.701 12.9504 214.429 13.6699C215.061 14.2757 215.387 15.0899 215.387 16.1312V16.1691C215.387 17.7973 214.506 18.8576 213.184 19.3877L215.751 23.0987H212.302L210.118 19.9179H208.815V23.0987H205.826V12.5339ZM210.788 17.5891C211.804 17.5891 212.379 17.0968 212.379 16.3395V16.3016C212.379 15.4875 211.766 15.0709 210.769 15.0709H208.796V17.5891H210.788ZM219.679 12.5339H228.301V14.9952H222.649V16.6045H227.803V18.9144H222.63V20.5805H228.416V23.0608H219.698V12.5339H219.679ZM103.66 19.0659C103.453 19.537 103.11 19.9374 102.674 20.2169C102.237 20.4964 101.727 20.6427 101.208 20.6373C99.5789 20.6373 98.4676 19.312 98.4676 17.7973C98.4676 16.2827 99.5597 14.9573 101.188 14.9573C101.746 14.9529 102.29 15.1201 102.747 15.4356C103.204 15.7512 103.55 16.1994 103.737 16.7181H106.917C106.643 15.4465 105.925 14.311 104.887 13.5111C103.85 12.7113 102.561 12.2982 101.246 12.3445C97.9311 12.3445 95.4401 14.8059 95.4401 17.8352V17.8541C95.4447 18.5898 95.5989 19.3171 95.8935 19.9928C96.1882 20.6685 96.6172 21.2788 97.1552 21.7874C97.6932 22.2961 98.3291 22.6927 99.0253 22.9537C99.7214 23.2147 100.464 23.3348 101.208 23.3069C104.043 23.3069 106.266 21.5083 106.841 19.1037L103.698 19.0848L103.66 19.0659Z" fill="#656566"/>
<path d="M20.5021 1.0224L29.8909 17.7595L21.2686 33.0955C20.8558 33.8278 20.6392 34.6522 20.6392 35.4905C20.6392 36.3288 20.8558 37.1532 21.2686 37.8856L29.8909 53.2595L20.5021 69.9965C18.7355 69.1311 17.2685 67.7671 16.2868 66.0773L1.3413 40.4227C0.470544 38.9247 0.0123272 37.2275 0.0123272 35.5C0.0123272 33.7725 0.470544 32.0753 1.3413 30.5773L16.2868 4.92267C17.2714 3.23989 18.7382 1.88279 20.5021 1.0224Z" fill="url(#paint0_linear_1_45)"/>
<path opacity="0.7" d="M21.2685 33.1144C20.8592 33.8445 20.6444 34.6654 20.6444 35.5C20.6444 36.3346 20.8592 37.1555 21.2685 37.8856L29.8909 53.2595L20.5021 69.9965C18.7355 69.1311 17.2684 67.7671 16.2867 66.0773L1.34126 40.4227C0.153287 38.3968 6.8021 35.9733 21.2685 33.1333V33.1144Z" fill="url(#paint1_linear_1_45)"/>
<path opacity="0.5" d="M21.4601 2.70747L29.8909 17.7595L28.4922 20.164L21.0578 7.7248C18.9117 4.26 15.6352 6.05867 11.5348 13.064L12.148 12.0227L16.2867 4.92267C17.2612 3.2454 18.714 1.88887 20.4638 1.0224L21.441 2.70747H21.4601Z" fill="url(#paint2_linear_1_45)"/>
<path d="M63.4224 4.92267L78.3678 30.5773C80.1498 33.6067 80.1498 37.3933 78.3678 40.4227L63.4224 66.0773C62.5484 67.5731 61.2916 68.8153 59.7782 69.6794C58.2648 70.5435 56.5479 70.9989 54.8 71H39.8545L58.4406 37.8856C58.8499 37.1555 59.0646 36.3346 59.0646 35.5C59.0646 34.6654 58.8499 33.8445 58.4406 33.1144L39.8545 0H54.8C56.5479 0.00110694 58.2648 0.456548 59.7782 1.3206C61.2916 2.18465 62.5484 3.42691 63.4224 4.92267Z" fill="url(#paint3_linear_1_45)"/>
<path d="M54.0336 70.8864L39.2797 71.0189L57.1376 37.7341C57.5368 36.994 57.7457 36.1683 57.7457 35.3296C57.7457 34.4909 57.5368 33.6652 57.1376 32.9251L39.2797 0H42.652L61.3913 32.7736C61.8354 33.5478 62.0672 34.4232 62.0639 35.3132C62.0605 36.2031 61.8221 37.0768 61.3722 37.8477C57.3391 44.7739 53.3345 51.7162 49.3583 58.6744C45.7178 64.9981 47.289 69.0688 54.0336 70.8864Z" fill="url(#paint4_linear_1_45)"/>
<path d="M24.9091 71C23.3762 71 21.8434 70.6403 20.5021 69.9965L38.9348 37.1472C39.5097 36.1248 39.5097 34.8752 38.9348 33.8528L20.5021 1.0224C21.8723 0.352 23.3802 0.00217232 24.9091 0L39.8545 0L58.4406 33.1144C58.8499 33.8445 59.0646 34.6654 59.0646 35.5C59.0646 36.3346 58.8499 37.1555 58.4406 37.8856L39.8545 71H24.9091Z" fill="url(#paint5_linear_1_45)"/>
<path opacity="0.6" d="M57.1376 33.8528L38.1301 0H39.8545L58.4406 33.1144C58.8499 33.8445 59.0646 34.6654 59.0646 35.5C59.0646 36.3346 58.8499 37.1555 58.4406 37.8856L39.8545 71H38.1301L57.1376 37.1472C57.7125 36.1248 57.7125 34.8752 57.1376 33.8528Z" fill="url(#paint6_linear_1_45)"/>
<path opacity="0.6" d="M38.9348 33.8528L20.5021 1.0224C21.0769 0.719466 21.7667 0.492266 22.4182 0.302933C26.4803 7.51653 32.4776 18.46 40.4294 33.1144C40.8387 33.8445 41.0535 34.6654 41.0535 35.5C41.0535 36.3346 40.8387 37.1555 40.4294 37.8856L22.1308 70.6213C21.4793 70.432 21.1344 70.2995 20.5213 70.0155L38.9157 37.1661C39.4905 36.1437 39.4905 34.8941 38.9157 33.8717L38.9348 33.8528Z" fill="url(#paint7_linear_1_45)"/>
</g>
<path d="M360.686 57.1698H369.9V42.7202H377.64L384.888 57.1698H395.086L386.609 40.5681C391.093 38.4161 393.98 33.989 393.98 28.455C393.98 19.7238 387.653 14.1283 378.193 14.1283H360.686V57.1698ZM377.456 21.8143C381.817 21.8143 384.581 24.3968 384.581 28.455C384.581 32.4518 381.817 35.0342 377.456 35.0342H369.9V21.8143H377.456ZM413.406 57.5387C421.821 57.5387 427.288 52.6197 428.271 46.471H419.733C418.996 49.4224 416.538 50.9596 413.037 50.9596C408.676 50.9596 405.789 48.2542 405.604 43.7655V43.3351H428.517C428.701 42.3513 428.763 41.306 428.763 40.3836C428.64 31.099 422.251 25.1961 412.791 25.1961C403.024 25.1961 396.574 31.5909 396.574 41.429C396.574 51.2055 402.901 57.5387 413.406 57.5387ZM405.789 37.6782C406.28 33.9274 409.106 31.6523 412.853 31.6523C416.784 31.6523 419.426 33.8044 420.04 37.6782H405.789ZM431.782 46.6554C432.15 53.4191 438.109 57.5387 446.893 57.5387C455.37 57.5387 461.267 53.5421 461.267 47.2703C461.267 40.1376 455.248 38.4775 447.999 37.7396C443.453 37.1863 440.75 36.9403 440.75 34.5423C440.75 32.5132 442.962 31.2834 446.34 31.2834C449.842 31.2834 452.238 32.8206 452.483 35.3416H460.776C460.346 28.8854 454.51 25.1347 446.033 25.1347C437.925 25.0732 432.458 29.1929 432.458 35.4646C432.458 41.9823 438.17 43.6425 445.542 44.5033C450.64 45.1797 452.79 45.3642 452.79 47.9466C452.79 50.1603 450.579 51.3285 446.955 51.3285C442.716 51.3285 440.32 49.4224 440.013 46.6554H431.782ZM481.433 57.5387C489.849 57.5387 495.316 52.6197 496.298 46.471H487.76C487.023 49.4224 484.566 50.9596 481.064 50.9596C476.703 50.9596 473.816 48.2542 473.631 43.7655V43.3351H496.544C496.728 42.3513 496.79 41.306 496.79 40.3836C496.667 31.099 490.278 25.1961 480.818 25.1961C471.051 25.1961 464.601 31.5909 464.601 41.429C464.601 51.2055 470.929 57.5387 481.433 57.5387ZM473.816 37.6782C474.307 33.9274 477.133 31.6523 480.88 31.6523C484.811 31.6523 487.453 33.8044 488.067 37.6782H473.816ZM519.644 25.1961C514.792 25.1961 511.904 27.0408 509.878 29.5003L509.079 25.5651H501.523V57.1698H510.184V40.9985C510.184 35.5261 512.765 32.3288 517.248 32.3288C521.61 32.3288 523.638 35.1572 523.638 40.5066V57.1698H532.299V39.6459C532.299 28.824 526.463 25.1961 519.644 25.1961ZM560.55 29.5003C558.522 26.9179 555.389 25.1961 551.028 25.1961C542.612 25.1961 536.408 31.5294 536.408 41.306C536.408 51.3285 542.612 57.5387 551.089 57.5387C555.635 57.5387 558.706 55.5097 560.795 52.8042L561.655 57.1698H569.211V14.1283H560.55V29.5003ZM552.994 50.4676C548.264 50.4676 545.254 46.7784 545.254 41.3674C545.254 35.9565 548.264 32.2672 552.994 32.2672C557.724 32.2672 560.671 36.018 560.671 41.429C560.671 46.7784 557.724 50.4676 552.994 50.4676Z" fill="black"/>
<rect x="314" y="23" width="9" height="30" fill="#D96504" fill-opacity="0.8"/>
<rect x="334" y="34" width="9" height="30" transform="rotate(90 334 34)" fill="#D96504" fill-opacity="0.8"/>
<defs>
<linearGradient id="paint0_linear_1_45" x1="1493.94" y1="6898.44" x2="-1513.86" y2="2003.04" gradientUnits="userSpaceOnUse">
<stop stop-color="#EB6F07"/>
<stop offset="1" stop-color="#FAB743"/>
</linearGradient>
<linearGradient id="paint1_linear_1_45" x1="2324.67" y1="3120.15" x2="768.329" y2="1500.27" gradientUnits="userSpaceOnUse">
<stop stop-color="#D96504"/>
<stop offset="1" stop-color="#D96504" stop-opacity="0"/>
</linearGradient>
<linearGradient id="paint2_linear_1_45" x1="782.49" y1="167.554" x2="1602.34" y2="1500.36" gradientUnits="userSpaceOnUse">
<stop stop-color="#EB6F07"/>
<stop offset="1" stop-color="#EB720A" stop-opacity="0"/>
</linearGradient>
<linearGradient id="paint3_linear_1_45" x1="2032.34" y1="7100" x2="-655.046" y2="1432.88" gradientUnits="userSpaceOnUse">
<stop stop-color="#EE6F05"/>
<stop offset="1" stop-color="#FAB743"/>
</linearGradient>
<linearGradient id="paint4_linear_1_45" x1="-717.155" y1="7101.89" x2="3663.74" y2="5976.62" gradientUnits="userSpaceOnUse">
<stop stop-color="#D96504" stop-opacity="0.8"/>
<stop offset="0.498" stop-color="#D96504" stop-opacity="0.2"/>
<stop offset="1" stop-color="#D96504" stop-opacity="0"/>
</linearGradient>
<linearGradient id="paint5_linear_1_45" x1="1948.63" y1="7100" x2="-794.285" y2="1502.63" gradientUnits="userSpaceOnUse">
<stop stop-color="#FFA95F"/>
<stop offset="1" stop-color="#FFEBC8"/>
</linearGradient>
<linearGradient id="paint6_linear_1_45" x1="207.7" y1="78.1" x2="2538.15" y2="448.876" gradientUnits="userSpaceOnUse">
<stop stop-color="white" stop-opacity="0.5"/>
<stop offset="1" stop-color="white" stop-opacity="0.1"/>
</linearGradient>
<linearGradient id="paint7_linear_1_45" x1="-261.051" y1="7327.48" x2="1887.33" y2="4850.1" gradientUnits="userSpaceOnUse">
<stop stop-color="white" stop-opacity="0.5"/>
<stop offset="1" stop-color="white" stop-opacity="0.1"/>
</linearGradient>
<clipPath id="clip0_1_45">
<rect width="274" height="71" fill="white"/>
</clipPath>
</defs>
</svg>
